<svg width="16" height="16" viewBox="0 0 16 16" fill="none" xmlns="http://www.w3.org/2000/svg">
<path fill-rule="evenodd" clip-rule="evenodd" d="M8.21757 1.47309C8.32403 1.37753 8.46486 1.32744 8.609 1.33386C11.6562 1.42508 14.2029 3.63718 14.6644 6.59373C14.6674 6.61139 14.6674 6.62939 14.6644 6.64704C14.6744 6.78693 14.6271 6.92494 14.5331 7.03055C14.439 7.13615 14.306 7.20064 14.1634 7.20975L9.04369 7.54738C8.87439 7.56239 8.70648 7.50668 8.58121 7.39393C8.45594 7.28118 8.38493 7.12183 8.38562 6.95505L8.0415 1.92619V1.84326C8.04776 1.70183 8.11111 1.56865 8.21757 1.47309ZM7.86641 8.86235L12.3039 8.57803L12.334 8.58988C12.5246 8.59299 12.7061 8.67026 12.8385 8.80468C12.971 8.93909 13.0436 9.11964 13.0404 9.30659C12.8655 11.8547 10.9974 13.9837 8.45516 14.5321C5.9129 15.0806 3.30676 13.9169 2.0585 11.6759C1.69146 11.0305 1.45951 10.3196 1.37628 9.58499C1.344 9.36732 1.32987 9.14743 1.33402 8.9275C1.34243 6.21802 3.2715 3.87936 5.97069 3.30631C6.29745 3.24515 6.62506 3.4083 6.76762 3.70317C6.80311 3.75668 6.83151 3.8144 6.85214 3.87495C6.90274 4.656 6.95522 5.42966 7.00749 6.20005C7.04876 6.80847 7.0899 7.41486 7.12986 8.02124C7.1278 8.16409 7.15025 8.30626 7.19627 8.4418C7.30461 8.70847 7.57422 8.87767 7.86641 8.86235Z" fill="white"/>
</svg>
