<svg width="16" height="16" viewBox="0 0 16 16" fill="none" xmlns="http://www.w3.org/2000/svg">
    <path fill-rule="evenodd" clip-rule="evenodd" d="M8.21757 1.47315C8.32403 1.37759 8.46486 1.3275 8.609 1.33392C11.6562 1.42514 14.2029 3.63724 14.6644 6.59379C14.6674 6.61145 14.6674 6.62945 14.6644 6.6471C14.6744 6.78699 14.6271 6.925 14.5331 7.03061C14.439 7.13621 14.306 7.2007 14.1634 7.20981L9.04369 7.54744C8.87439 7.56245 8.70648 7.50674 8.58121 7.39399C8.45594 7.28124 8.38493 7.1219 8.38562 6.95511L8.0415 1.92625V1.84333C8.04776 1.70189 8.11111 1.56871 8.21757 1.47315ZM7.86641 8.86241L12.3039 8.57809L12.334 8.58994C12.5246 8.59305 12.7061 8.67032 12.8385 8.80474C12.971 8.93915 13.0436 9.1197 13.0404 9.30665C12.8655 11.8547 10.9974 13.9837 8.45516 14.5322C5.9129 15.0807 3.30676 13.917 2.0585 11.676C1.69146 11.0305 1.45951 10.3196 1.37628 9.58505C1.344 9.36738 1.32987 9.14749 1.33402 8.92756C1.34243 6.21808 3.2715 3.87942 5.97069 3.30637C6.29745 3.24521 6.62506 3.40836 6.76762 3.70323C6.80311 3.75674 6.83151 3.81446 6.85214 3.87501C6.90274 4.65606 6.95522 5.42972 7.00749 6.20011C7.04876 6.80853 7.0899 7.41492 7.12986 8.0213C7.1278 8.16415 7.15025 8.30632 7.19627 8.44186C7.30461 8.70853 7.57422 8.87773 7.86641 8.86241Z" fill="#787878"/>
</svg>
