<svg width="16" height="16" viewBox="0 0 16 16" fill="none" xmlns="http://www.w3.org/2000/svg">
    <path d="M7.99998 1.6001C4.47167 1.6001 1.59998 4.47179 1.59998 8.0001C1.59998 11.5284 4.47167 14.4001 7.99998 14.4001C11.5283 14.4001 14.4 11.5284 14.4 8.0001C14.4 4.47179 11.5283 1.6001 7.99998 1.6001ZM7.99998 2.66676C8.20964 2.66676 8.42688 2.75361 8.67498 2.98447C8.92307 3.21533 9.17983 3.58766 9.39998 4.07197C9.56355 4.43183 9.69702 4.86783 9.81248 5.33343H6.18747C6.30293 4.86783 6.4364 4.43183 6.59998 4.07197C6.82012 3.58766 7.07688 3.21533 7.32498 2.98447C7.57307 2.75361 7.79031 2.66676 7.99998 2.66676ZM5.91352 3.08968C5.81314 3.26083 5.71665 3.43884 5.62914 3.63135C5.4011 4.13303 5.21809 4.70839 5.08018 5.33343H3.38331C3.95905 4.3367 4.84446 3.54304 5.91352 3.08968ZM10.0864 3.08968C11.1555 3.54304 12.0409 4.3367 12.6166 5.33343H10.9198C10.7819 4.70839 10.5988 4.13303 10.3708 3.63135C10.2833 3.43884 10.1868 3.26083 10.0864 3.08968ZM2.91039 6.4001H4.89893C4.83624 6.91217 4.79998 7.44646 4.79998 8.0001C4.79998 8.55374 4.83624 9.08802 4.89893 9.6001H2.91039C2.75254 9.09526 2.66664 8.55788 2.66664 8.0001C2.66664 7.44231 2.75254 6.90493 2.91039 6.4001ZM5.98539 6.4001H10.0146C10.0841 6.90894 10.1333 7.43875 10.1333 8.0001C10.1333 8.56145 10.0841 9.09125 10.0146 9.6001H5.98539C5.91583 9.09125 5.86664 8.56145 5.86664 8.0001C5.86664 7.43875 5.91583 6.90894 5.98539 6.4001ZM11.101 6.4001H13.0896C13.2474 6.90493 13.3333 7.44231 13.3333 8.0001C13.3333 8.55788 13.2474 9.09526 13.0896 9.6001H11.101C11.1637 9.08802 11.2 8.55374 11.2 8.0001C11.2 7.44646 11.1637 6.91217 11.101 6.4001ZM3.38331 10.6668H5.08018C5.21809 11.2918 5.4011 11.8672 5.62914 12.3688C5.71665 12.5614 5.81314 12.7394 5.91352 12.9105C4.84446 12.4572 3.95905 11.6635 3.38331 10.6668ZM6.18747 10.6668H9.81248C9.69702 11.1324 9.56355 11.5684 9.39998 11.9282C9.17983 12.4125 8.92307 12.7849 8.67498 13.0157C8.42688 13.2466 8.20964 13.3334 7.99998 13.3334C7.79031 13.3334 7.57307 13.2466 7.32498 13.0157C7.07688 12.7849 6.82012 12.4125 6.59998 11.9282C6.4364 11.5684 6.30293 11.1324 6.18747 10.6668ZM10.9198 10.6668H12.6166C12.0409 11.6635 11.1555 12.4572 10.0864 12.9105C10.1868 12.7394 10.2833 12.5614 10.3708 12.3688C10.5988 11.8672 10.7819 11.2918 10.9198 10.6668Z" fill="white"/>
</svg>
