<svg width="16" height="16" viewBox="0 0 16 16" fill="none" xmlns="http://www.w3.org/2000/svg">
    <path fill-rule="evenodd" clip-rule="evenodd" d="M13.6015 9.0535C13.84 9.18016 14.0239 9.38016 14.1534 9.58016C14.4055 9.9935 14.385 10.5002 14.1398 10.9468L13.6628 11.7468C13.4108 12.1735 12.9407 12.4402 12.4569 12.4402C12.2185 12.4402 11.9528 12.3735 11.7347 12.2402C11.5576 12.1268 11.3532 12.0868 11.1352 12.0868C10.4607 12.0868 9.89522 12.6402 9.87478 13.3002C9.87478 14.0668 9.24798 14.6668 8.46448 14.6668H7.53791C6.7476 14.6668 6.12079 14.0668 6.12079 13.3002C6.10717 12.6402 5.54169 12.0868 4.86719 12.0868C4.64236 12.0868 4.43797 12.1268 4.26765 12.2402C4.04963 12.3735 3.77711 12.4402 3.54546 12.4402C3.05492 12.4402 2.58482 12.1735 2.33274 11.7468L1.86264 10.9468C1.61056 10.5135 1.59693 9.9935 1.84901 9.58016C1.95802 9.38016 2.16241 9.18016 2.39406 9.0535C2.58482 8.96016 2.70746 8.80683 2.82328 8.62683C3.16393 8.0535 2.95954 7.30016 2.38043 6.96016C1.70594 6.58016 1.48792 5.7335 1.87627 5.0735L2.33274 4.28683C2.7279 3.62683 3.57271 3.3935 4.25402 3.78016C4.84675 4.10016 5.61663 3.88683 5.96409 3.32016C6.0731 3.1335 6.13442 2.9335 6.12079 2.7335C6.10717 2.4735 6.18211 2.22683 6.31156 2.02683C6.56364 1.6135 7.02012 1.34683 7.51747 1.3335H8.47811C8.98228 1.3335 9.43875 1.6135 9.69083 2.02683C9.81347 2.22683 9.89522 2.4735 9.87478 2.7335C9.86116 2.9335 9.92248 3.1335 10.0315 3.32016C10.379 3.88683 11.1488 4.10016 11.7484 3.78016C12.4229 3.3935 13.2745 3.62683 13.6628 4.28683L14.1193 5.0735C14.5145 5.7335 14.2965 6.58016 13.6151 6.96016C13.036 7.30016 12.8316 8.0535 13.1791 8.62683C13.2881 8.80683 13.4108 8.96016 13.6015 9.0535ZM6.0731 8.00683C6.0731 9.0535 6.93836 9.88683 8.00801 9.88683C9.07766 9.88683 9.92248 9.0535 9.92248 8.00683C9.92248 6.96016 9.07766 6.12016 8.00801 6.12016C6.93836 6.12016 6.0731 6.96016 6.0731 8.00683Z" fill="white"/>
</svg>
