<svg width="16" height="16" viewBox="0 0 16 16" fill="none" xmlns="http://www.w3.org/2000/svg">
    <path fill-rule="evenodd" clip-rule="evenodd" d="M13.6015 9.05337C13.84 9.18004 14.0239 9.38004 14.1534 9.58004C14.4055 9.99337 14.385 10.5 14.1398 10.9467L13.6628 11.7467C13.4108 12.1734 12.9407 12.44 12.4569 12.44C12.2185 12.44 11.9528 12.3734 11.7347 12.24C11.5576 12.1267 11.3532 12.0867 11.1352 12.0867C10.4607 12.0867 9.89522 12.64 9.87478 13.3C9.87478 14.0667 9.24798 14.6667 8.46448 14.6667H7.53791C6.7476 14.6667 6.12079 14.0667 6.12079 13.3C6.10717 12.64 5.54169 12.0867 4.86719 12.0867C4.64236 12.0867 4.43797 12.1267 4.26765 12.24C4.04963 12.3734 3.77711 12.44 3.54546 12.44C3.05492 12.44 2.58482 12.1734 2.33274 11.7467L1.86264 10.9467C1.61056 10.5134 1.59693 9.99337 1.84901 9.58004C1.95802 9.38004 2.16241 9.18004 2.39406 9.05337C2.58482 8.96004 2.70746 8.80671 2.82328 8.62671C3.16393 8.05337 2.95954 7.30004 2.38043 6.96004C1.70594 6.58004 1.48792 5.73337 1.87627 5.07337L2.33274 4.28671C2.7279 3.62671 3.57271 3.39337 4.25402 3.78004C4.84675 4.10004 5.61663 3.88671 5.96409 3.32004C6.0731 3.13337 6.13442 2.93337 6.12079 2.73337C6.10717 2.47337 6.18211 2.22671 6.31156 2.02671C6.56364 1.61337 7.02012 1.34671 7.51747 1.33337H8.47811C8.98228 1.33337 9.43875 1.61337 9.69083 2.02671C9.81347 2.22671 9.89522 2.47337 9.87478 2.73337C9.86116 2.93337 9.92248 3.13337 10.0315 3.32004C10.379 3.88671 11.1488 4.10004 11.7484 3.78004C12.4229 3.39337 13.2745 3.62671 13.6628 4.28671L14.1193 5.07337C14.5145 5.73337 14.2965 6.58004 13.6151 6.96004C13.036 7.30004 12.8316 8.05337 13.1791 8.62671C13.2881 8.80671 13.4108 8.96004 13.6015 9.05337ZM6.0731 8.00671C6.0731 9.05337 6.93836 9.88671 8.00801 9.88671C9.07766 9.88671 9.92248 9.05337 9.92248 8.00671C9.92248 6.96004 9.07766 6.12004 8.00801 6.12004C6.93836 6.12004 6.0731 6.96004 6.0731 8.00671Z" fill="#787878"/>
</svg>
